<svg width="394" height="88" viewBox="0 0 394 88" fill="none" xmlns="http://www.w3.org/2000/svg">
<g filter="url(#filter0_d_264_830)">
<mask id="path-1-inside-1_264_830" fill="white">
<path d="M10 18C10 13.5817 13.5817 10 18 10H362C366.418 10 370 13.5817 370 18V50C370 54.4183 366.418 58 362 58H18C13.5817 58 10 54.4183 10 50V18Z"/>
</mask>
<path d="M10 18C10 13.5817 13.5817 10 18 10H362C366.418 10 370 13.5817 370 18V50C370 54.4183 366.418 58 362 58H18C13.5817 58 10 54.4183 10 50V18Z" fill="white"/>
<path d="M10 10H370H10ZM370 50C370 56.6274 364.627 62 358 62H22C15.3726 62 10 56.6274 10 50C10 52.2091 13.5817 54 18 54H362C366.418 54 370 52.2091 370 50ZM10 58V10V58ZM370 10V58V10Z" fill="#0586FE" mask="url(#path-1-inside-1_264_830)"/>
<path d="M25.3334 42.3334C25.3334 38.6515 28.3181 35.6667 32 35.6667C35.682 35.6667 38.6667 38.6515 38.6667 42.3334H37C37 39.572 34.7615 37.3334 32 37.3334C29.2386 37.3334 27 39.572 27 42.3334H25.3334ZM32 34.8334C29.2375 34.8334 27 32.5959 27 29.8334C27 27.0709 29.2375 24.8334 32 24.8334C34.7625 24.8334 37 27.0709 37 29.8334C37 32.5959 34.7625 34.8334 32 34.8334ZM32 33.1667C33.8417 33.1667 35.3334 31.675 35.3334 29.8334C35.3334 27.9917 33.8417 26.5 32 26.5C30.1584 26.5 28.6667 27.9917 28.6667 29.8334C28.6667 31.675 30.1584 33.1667 32 33.1667Z" fill="#0586FE"/>
<path d="M59.544 39.584C58.2933 39.584 57.3087 39.2247 56.59 38.506C55.8713 37.7873 55.512 36.7233 55.512 35.314V29.7H56.548V35.272C56.548 36.4293 56.8093 37.2833 57.332 37.834C57.8547 38.3847 58.592 38.66 59.544 38.66C60.5053 38.66 61.2473 38.3847 61.77 37.834C62.2927 37.2833 62.554 36.4293 62.554 35.272V29.7H63.562V35.314C63.562 36.7233 63.2027 37.7873 62.484 38.506C61.7747 39.2247 60.7947 39.584 59.544 39.584ZM68.4479 39.57C67.8412 39.57 67.2672 39.486 66.7259 39.318C66.1846 39.1407 65.7599 38.9213 65.4519 38.66L65.8999 37.876C66.1986 38.1 66.5812 38.296 67.0479 38.464C67.5146 38.6227 68.0046 38.702 68.5179 38.702C69.2179 38.702 69.7219 38.5947 70.0299 38.38C70.3379 38.156 70.4919 37.862 70.4919 37.498C70.4919 37.2273 70.4032 37.0173 70.2259 36.868C70.0579 36.7093 69.8339 36.5927 69.5539 36.518C69.2739 36.434 68.9612 36.364 68.6159 36.308C68.2706 36.252 67.9252 36.1867 67.5799 36.112C67.2439 36.0373 66.9359 35.93 66.6559 35.79C66.3759 35.6407 66.1472 35.44 65.9699 35.188C65.8019 34.936 65.7179 34.6 65.7179 34.18C65.7179 33.7787 65.8299 33.4193 66.0539 33.102C66.2779 32.7847 66.6046 32.5373 67.0339 32.36C67.4726 32.1733 68.0046 32.08 68.6299 32.08C69.1059 32.08 69.5819 32.1453 70.0579 32.276C70.5339 32.3973 70.9259 32.5607 71.2339 32.766L70.7999 33.564C70.4732 33.34 70.1232 33.1813 69.7499 33.088C69.3766 32.9853 69.0032 32.934 68.6299 32.934C67.9672 32.934 67.4772 33.0507 67.1599 33.284C66.8519 33.508 66.6979 33.7973 66.6979 34.152C66.6979 34.432 66.7819 34.6513 66.9499 34.81C67.1272 34.9687 67.3559 35.0947 67.6359 35.188C67.9252 35.272 68.2379 35.342 68.5739 35.398C68.9192 35.454 69.2599 35.524 69.5959 35.608C69.9412 35.6827 70.2539 35.79 70.5339 35.93C70.8232 36.0607 71.0519 36.252 71.2199 36.504C71.3972 36.7467 71.4859 37.0687 71.4859 37.47C71.4859 37.8993 71.3646 38.2727 71.1219 38.59C70.8886 38.898 70.5432 39.1407 70.0859 39.318C69.6379 39.486 69.0919 39.57 68.4479 39.57ZM76.3478 39.57C75.7225 39.57 75.1765 39.4533 74.7098 39.22C74.2432 38.9867 73.8792 38.6367 73.6178 38.17C73.3658 37.7033 73.2398 37.12 73.2398 36.42V32.15H74.2338V36.308C74.2338 37.092 74.4252 37.6847 74.8078 38.086C75.1998 38.478 75.7458 38.674 76.4458 38.674C76.9592 38.674 77.4025 38.5713 77.7758 38.366C78.1585 38.1513 78.4478 37.8433 78.6438 37.442C78.8492 37.0407 78.9518 36.56 78.9518 36V32.15H79.9458V39.5H78.9938V37.484L79.1478 37.848C78.9145 38.3893 78.5505 38.814 78.0558 39.122C77.5705 39.4207 77.0012 39.57 76.3478 39.57ZM87.3221 39.5V37.876L87.2801 37.61V34.894C87.2801 34.2687 87.1027 33.788 86.7481 33.452C86.4027 33.116 85.8847 32.948 85.1941 32.948C84.7181 32.948 84.2654 33.0273 83.8361 33.186C83.4067 33.3447 83.0427 33.5547 82.7441 33.816L82.2961 33.074C82.6694 32.7567 83.1174 32.514 83.6401 32.346C84.1627 32.1687 84.7134 32.08 85.2921 32.08C86.2441 32.08 86.9767 32.318 87.4901 32.794C88.0127 33.2607 88.2741 33.9747 88.2741 34.936V39.5H87.3221ZM84.7881 39.57C84.2374 39.57 83.7567 39.4813 83.3461 39.304C82.9447 39.1173 82.6367 38.8653 82.4221 38.548C82.2074 38.2213 82.1001 37.848 82.1001 37.428C82.1001 37.0453 82.1887 36.7 82.3661 36.392C82.5527 36.0747 82.8514 35.8227 83.2621 35.636C83.6821 35.44 84.2421 35.342 84.9421 35.342H87.4761V36.084H84.9701C84.2607 36.084 83.7661 36.21 83.4861 36.462C83.2154 36.714 83.0801 37.0267 83.0801 37.4C83.0801 37.82 83.2434 38.156 83.5701 38.408C83.8967 38.66 84.3541 38.786 84.9421 38.786C85.5021 38.786 85.9827 38.66 86.3841 38.408C86.7947 38.1467 87.0934 37.7733 87.2801 37.288L87.5041 37.974C87.3174 38.4593 86.9907 38.8467 86.5241 39.136C86.0667 39.4253 85.4881 39.57 84.7881 39.57ZM84.4101 31.002L86.3281 29.266H87.6581L85.3901 31.002H84.4101ZM90.9739 39.5V32.15H91.9259V34.152L91.8279 33.802C92.0332 33.242 92.3786 32.8173 92.8639 32.528C93.3492 32.2293 93.9512 32.08 94.6699 32.08V33.046C94.6326 33.046 94.5952 33.046 94.5579 33.046C94.5206 33.0367 94.4832 33.032 94.4459 33.032C93.6712 33.032 93.0646 33.27 92.6259 33.746C92.1872 34.2127 91.9679 34.88 91.9679 35.748V39.5H90.9739ZM96.4837 39.5V32.15H97.4777V39.5H96.4837ZM96.9877 30.526C96.7823 30.526 96.6097 30.456 96.4697 30.316C96.3297 30.176 96.2597 30.008 96.2597 29.812C96.2597 29.616 96.3297 29.4527 96.4697 29.322C96.6097 29.182 96.7823 29.112 96.9877 29.112C97.193 29.112 97.3657 29.1773 97.5057 29.308C97.6457 29.4387 97.7157 29.602 97.7157 29.798C97.7157 30.0033 97.6457 30.176 97.5057 30.316C97.375 30.456 97.2023 30.526 96.9877 30.526ZM103.239 39.57C102.53 39.57 101.891 39.4113 101.321 39.094C100.761 38.7673 100.318 38.324 99.9914 37.764C99.6648 37.1947 99.5014 36.546 99.5014 35.818C99.5014 35.0807 99.6648 34.432 99.9914 33.872C100.318 33.312 100.761 32.8733 101.321 32.556C101.881 32.2387 102.521 32.08 103.239 32.08C103.967 32.08 104.611 32.2387 105.171 32.556C105.741 32.8733 106.184 33.312 106.501 33.872C106.828 34.432 106.991 35.0807 106.991 35.818C106.991 36.546 106.828 37.1947 106.501 37.764C106.184 38.324 105.741 38.7673 105.171 39.094C104.602 39.4113 103.958 39.57 103.239 39.57ZM103.239 38.688C103.771 38.688 104.243 38.5713 104.653 38.338C105.064 38.0953 105.386 37.7593 105.619 37.33C105.862 36.8913 105.983 36.3873 105.983 35.818C105.983 35.2393 105.862 34.7353 105.619 34.306C105.386 33.8767 105.064 33.5453 104.653 33.312C104.243 33.0693 103.776 32.948 103.253 32.948C102.731 32.948 102.264 33.0693 101.853 33.312C101.443 33.5453 101.116 33.8767 100.873 34.306C100.631 34.7353 100.509 35.2393 100.509 35.818C100.509 36.3873 100.631 36.8913 100.873 37.33C101.116 37.7593 101.443 38.0953 101.853 38.338C102.264 38.5713 102.726 38.688 103.239 38.688Z" fill="#333333"/>
</g>
<defs>
<filter id="filter0_d_264_830" x="0" y="0" width="400" height="88" filterUnits="userSpaceOnUse" color-interpolation-filters="sRGB">
<feFlood flood-opacity="0" result="BackgroundImageFix"/>
<feColorMatrix in="SourceAlpha" type="matrix" values="0 0 0 0 0 0 0 0 0 0 0 0 0 0 0 0 0 0 127 0" result="hardAlpha"/>
<feOffset dx="10" dy="10"/>
<feGaussianBlur stdDeviation="10"/>
<feComposite in2="hardAlpha" operator="out"/>
<feColorMatrix type="matrix" values="0 0 0 0 0 0 0 0 0 0 0 0 0 0 0 0 0 0 0.06 0"/>
<feBlend mode="normal" in2="BackgroundImageFix" result="effect1_dropShadow_264_830"/>
<feBlend mode="normal" in="SourceGraphic" in2="effect1_dropShadow_264_830" result="shape"/>
</filter>
</defs>
</svg>
