<svg width="20" height="20" viewBox="0 0 20 20" fill="none" xmlns="http://www.w3.org/2000/svg">
<path d="M5 6.66671V5.83337C5 3.07195 7.23857 0.833374 10 0.833374C12.7614 0.833374 15 3.07195 15 5.83337V6.66671H16.6667C17.1269 6.66671 17.5 7.03981 17.5 7.50004V17.5C17.5 17.9603 17.1269 18.3334 16.6667 18.3334H3.33333C2.8731 18.3334 2.5 17.9603 2.5 17.5V7.50004C2.5 7.03981 2.8731 6.66671 3.33333 6.66671H5ZM15.8333 8.33337H4.16667V16.6667H15.8333V8.33337ZM9.16667 13.1104C8.6685 12.8222 8.33333 12.2836 8.33333 11.6667C8.33333 10.7462 9.0795 10 10 10C10.9205 10 11.6667 10.7462 11.6667 11.6667C11.6667 12.2836 11.3315 12.8222 10.8333 13.1104V15H9.16667V13.1104ZM6.66667 6.66671H13.3333V5.83337C13.3333 3.99242 11.8409 2.50004 10 2.50004C8.15905 2.50004 6.66667 3.99242 6.66667 5.83337V6.66671Z" fill="#0586FE"/>
</svg>
